<svg width="24" height="24" viewBox="0 0 24 24" fill="none" xmlns="http://www.w3.org/2000/svg">
<path fill-rule="evenodd" clip-rule="evenodd" d="M8 2H16C20 2 22 4 22 8V21C22 21.55 21.55 22 21 22H8C4 22 2 20 2 16V8C2 4 4 2 8 2ZM17.75 9.5C17.75 9.08579 17.4142 8.75 17 8.75H7C6.58579 8.75 6.25 9.08579 6.25 9.5C6.25 9.91421 6.58579 10.25 7 10.25H17C17.4142 10.25 17.75 9.91421 17.75 9.5ZM17 13.75C17.4142 13.75 17.75 14.0858 17.75 14.5C17.75 14.9142 17.4142 15.25 17 15.25H10C9.58579 15.25 9.25 14.9142 9.25 14.5C9.25 14.0858 9.58579 13.75 10 13.75H17Z" fill="white"/>
</svg>
