<svg width="15" height="15" viewBox="0 0 15 15" fill="none" xmlns="http://www.w3.org/2000/svg">
<path d="M3.81874 10.9375C2.43749 9.64375 1.25 7.8 1.25 5.425C1.25 3.49375 2.80625 1.93127 4.725 1.93127C5.8625 1.93127 6.86875 2.48126 7.5 3.33126C8.13125 2.48126 9.14375 1.93127 10.275 1.93127C10.9938 1.93127 11.6625 2.14999 12.2187 2.53124" stroke="white" stroke-linecap="round" stroke-linejoin="round"/>
<path d="M13.5874 4.375C13.6937 4.70625 13.7499 5.0625 13.7499 5.43125C13.7499 9.80625 9.69994 12.3875 7.88744 13.0125C7.67494 13.0875 7.32494 13.0875 7.11244 13.0125C6.70619 12.875 6.1937 12.6375 5.63745 12.3063" stroke="white" stroke-linecap="round" stroke-linejoin="round"/>
<path d="M13.75 1.25L1.25 13.75" stroke="#FF1F00" stroke-linecap="round" stroke-linejoin="round"/>
</svg>
